<?xml version="1.0" encoding="UTF-8" standalone="no"?>
<svg
   xmlns:dc="http://purl.org/dc/elements/1.1/"
   xmlns:cc="http://creativecommons.org/ns#"
   xmlns:rdf="http://www.w3.org/1999/02/22-rdf-syntax-ns#"
   xmlns:svg="http://www.w3.org/2000/svg"
   xmlns="http://www.w3.org/2000/svg"
   xmlns:sodipodi="http://sodipodi.sourceforge.net/DTD/sodipodi-0.dtd"
   xmlns:inkscape="http://www.inkscape.org/namespaces/inkscape"
   viewBox="0 0 492.91135 214.45052"
   version="1.1"
   id="svg4"
   sodipodi:docname="Nykaa Logo with Slogan.svg"
   width="492.91135"
   height="214.45052"
   inkscape:version="0.92.4 (5da689c313, 2019-01-14)">
  <metadata
     id="metadata10">
    <rdf:RDF>
      <cc:Work
         rdf:about="">
        <dc:format>image/svg+xml</dc:format>
        <dc:type
           rdf:resource="http://purl.org/dc/dcmitype/StillImage" />
        <dc:title></dc:title>
      </cc:Work>
    </rdf:RDF>
  </metadata>
  <defs
     id="defs8" />
  <sodipodi:namedview
     pagecolor="#ffffff"
     bordercolor="#666666"
     borderopacity="1"
     objecttolerance="10"
     gridtolerance="10"
     guidetolerance="10"
     inkscape:pageopacity="0"
     inkscape:pageshadow="2"
     inkscape:window-width="1920"
     inkscape:window-height="1001"
     id="namedview6"
     showgrid="false"
     inkscape:zoom="0.73632812"
     inkscape:cx="250.80647"
     inkscape:cy="139.07774"
     inkscape:window-x="-9"
     inkscape:window-y="41"
     inkscape:window-maximized="1"
     inkscape:current-layer="svg4" />
  <path
     d="m 152.70647,7.572777 c 5,-9.6 -11.2,-6.90000012 -11.2,-6.90000012 -5.8,0 -8.4,7.00000012 -9.6,9.00000012 l -17.5,34.5 c -3.3,5.7 -14.2,30.1 -17.800003,35.5 -0.3,-5.5 0.1,-16.5 0.2,-19.1 0.7,-10.4 1.4,-18.3 2.5,-27.8 0.800003,-7.4 2.400003,-15.7 0.900003,-23.1 -1.000003,-4.6 -2.500003,-4.9 -9.100003,-5.6 -6.9,-0.7 -11.6,9.3 -13.9,14 -8.4,17.4 -17.8,34.4 -25.3,52.2 -2.2,5.2 -4.9,10.4 -7.2,15.5 -2.7,6.2 -5.2,12.3 -8.1,18.400003 -3.1,6.4 -12.8,27.4 -15.5,34 -3,7.2 -3.6,13 8.4,12.7 1.9,0 6.1,0.4 11.3,-5.2 4.1,-4.4 4.9,-8.5 7.3,-14.6 8.6,-21.6 14.7,-35.900003 24.1,-57.300003 0.9,-2.1 3,-8.2 5.1,-12.9 -0.1,6.7 -1.2,14.7 -1.7,20 -1.6,19.400003 -2.7,38.100003 -4.4,57.300003 -0.2,2.6 -0.9,5.7 0.3,8.1 1.2,2.4 4.2,3 6.6,3.3 9.6,1.2 10.6,-3.6 13.6,-10.2 2.7,-5.9 4.3,-10.7 6.7,-16.7 7.400003,-18.5 15.200003,-36.800003 23.800003,-54.800003 2.2,-4.6 4.4,-9.1 6.8,-13.6 4.4,-8.3 8,-16.1 12.8,-25.3 3.6,-6.6 7.1,-14.1 10.9,-21.4 z m 329.5,52.1 c -1.1,-11.1 -16.3,-5.5 -25.4,-3.8 -3.4,0.6 -13.9,2.6 -26,4.9 -0.5,-12.5 -0.3,-10 -0.4,-17.6 -0.3,-11 -0.9,-19.6 -1.5,-29.3 -0.4,-6.1 -1.3,-14.60000012 -12.3,-13.00000012 -12.8,1.80000012 -14.9,8.20000012 -18.3,15.90000012 -8.9,20.1 -8.6,20.2 -18.7,42.6 -0.8,1.7 -4.5,10.7 -5.1,12.5 -0.4,0.1 -1.2,0.3 -2.2,0.6 -4.1,0.9 -9.1,2 -14.6,3.2 l 0.1,-0.5 c 1.3,-10.2 2.9,-20.4 4.3,-30.6 1.3,-9.3 2.7,-24.5 3.8,-33.8 1.2,-10.00000012 -10.4,-9.80000012 -10.4,-9.80000012 -7.1,-0.4 -9.8,1.70000012 -14.3,7.50000012 -7.7,10 -17,20.8 -25.2,31.8 -14.9,19.9 -25.8,34.9 -39.3,54.9 -3.9,5.800003 -9.9,14.600003 -15.1,21.500003 -3.5,-6.9 -6.5,-14.5 -9.4,-21.500003 -4.2,-10 -7.3,-16.2 -9.3,-22.8 -1.8,-5.8 0.4,-6.6 4.7,-9.9 12.4,-9.4 26.4,-15.9 39.1,-24.9 9,-6.4 19.8,-13.5 28.6,-20.1 0,0 5.1,-3 7.9,-6.8 3.5,-4.8 -6.4,-9.80000012 -6.4,-9.80000012 -5.6,-0.9 -8.7,0.40000012 -12.6,2.20000012 -4,1.8 -9.2,5.9 -12.6,8.6 -7.5,5.8 -17,12.7 -24.4,18.5 -9.1,7.1 -15.3,11.5 -25.3,17.4 l 25.4,-38 c 8.3,-10.7 -13.7,-13.7 -22.1,-2.4 -7.8,10.1 -13.1,19 -19.2,28.2 -14.7,21.9 -26.8,44.9 -38.9,69.000003 -4.6,9.2 -9.1,18.8 -13.3,28.3 -2,4.6 -7.9,15.2 0.2,16.3 17.3,2.2 20.1,-6 24,-15.9 6.4,-16.3 8.5,-19.3 12.6,-29.4 4,-9.800003 6.9,-15.400003 11.4,-23.800003 0.1,-0.1 1.4,-2.2 1.4,-2.2 0.8,1.7 6.1,19.3 6.8,21.3 3.6,9.500003 9.9,31.700003 13.5,41.800003 2.6,8.4 3.3,10.8 14.6,10.5 5.6,-0.1 8,-2.3 11.7,-9.3 3.7,-7 19.7,-36.8 19.7,-36.8 4.8,-0.8 11.7,-2 16.2,-2.8 0.8,-0.1 2.6,-0.5 5.1,-1 1.7,-0.2 3.1,-0.5 4.2,-0.8 0.1,0 0.1,0 0.2,-0.1 4.4,-0.900003 10,-2.000003 16.1,-3.200003 -1.1,5.500003 -4.5,17.600003 -5.2,20.700003 0,0 -7.4,28.8 2.2,30.3 6,0.9 9.1,-0.1 9.1,-0.1 11.2,-1.3 11.4,-16.4 11.4,-16.4 l 6.1,-39.100003 c 4.4,-0.9 8.8,-1.8 13.1,-2.6 l -13.2,44.600003 c -1.9,6.3 -3.3,14.4 8,14.4 9.2,0.5 9.8,-5.3 9.8,-5.3 0.2,-0.9 7.5,-24.4 9.3,-32.8 1.2,-5.4 5.5,-19.300003 7.2,-24.900003 4.8,-0.9 8.4,-1.6 10.1,-1.9 2,-0.3 5.9,-1 11,-1.8 -0.1,5.2 0,12.4 0.1,13.4 1.1,15.800003 -0.1,32.200003 3.2,47.700003 0.5,2.5 1.5,5.7 4.7,5.7 3.8,0 5,-0.4 9,-0.7 11.6,-1 9.5,-12.7 8.8,-20.1 -0.8,-8.2 -1.6,-15.1 -2.7,-23.3 -0.9,-6.700003 -1.5,-15.500003 -1.6,-26.100003 v -0.2 c 19,-3.2 39.5,-6.7 42.5,-7.2 4.8,-1.3 8.8,-0.9 7.8,-11.9 z m -148.5,21 c 0,0.1 -0.1,0.1 -0.1,0.2 -13.3,2.9 -25.8,5.7 -32.8,7.3 7,-11.7 37.8,-54.3 42.5,-59.3 -2.6,13.2 -6.8,37.7 -9.6,51.8 z m 76.8,-16.8 v 0.7 c -6.4,1.2 -12.4,2.4 -17.2,3.3 6.1,-15.8 12.5,-35.2 16.3,-45 -0.3,7.3 1.2,33.8 0.9,41 z m -186.5,-47.1 c 2,-3.7 6.5,-11 0.9,-13.8 -3.3,-1.6 -7.7,-2.60000012 -11.1,-0.9 -2.8,1.5 -4.9,4.4 -6.3,7.1 l -21.4,33.7 c -3.5,4.8 -6.8,10.8 -13.9,11.6 -4.7,0.5 -8.1,-1.5 -8,-5.7 0.1,-4.3 2.6,-10 4.5,-13.7 5.6,-10.6 6.3,-14.2 11.7,-24.7 5.2,-10.10000012 -11.8,-12.4 -16,-5.1 -3,5.2 -8.8,15 -10.1,18.3 -2.4,6 -20.4,34.6 -12.6,45.9 10,12.8 36.6,-7.4 23,15.9 -11,18.700003 -17.9,29.400003 -27.5,46.700003 -2.1,3.7 -4.7,7.4 -5.4,11.8 -1,6.2 7.5,6.1 11.2,5.9 6.5,-0.5 9.6,-3.5 12.2,-9.4 1.4,-3.1 3.3,-6.9 4.7,-10 12.6,-27.5 26,-51.400003 42.6,-78.000003 7.9,-12.6 14.9,-23.4 21.5,-35.6 z"
     id="path2"
     inkscape:connector-curvature="0"
     style="fill:#000000" />
  <g
     aria-label="Your Beauty. Our Passion."
     style="font-style:normal;font-variant:normal;font-weight:bold;font-stretch:normal;font-size:42.66666794px;line-height:1.25;font-family:'Brandon Grotesque';-inkscape-font-specification:'Brandon Grotesque Bold';letter-spacing:0px;word-spacing:0px;fill:#fc2779;fill-opacity:1;stroke:none"
     id="text819"
     transform="matrix(1.1284723,0,0,1.1284723,53.935406,-19.770824)">
    <path
       d="m -37.933157,193.94547 c 0,0.42666 0.341333,0.81066 0.810667,0.81066 h 3.925333 c 0.426667,0 0.810667,-0.384 0.810667,-0.81066 V 180.3348 l 9.856,-14.208 c 0.341333,-0.55467 0,-1.23733 -0.682667,-1.23733 h -4.394666 c -0.341334,0 -0.554667,0.21333 -0.682667,0.384 l -6.826667,9.81333 -6.826667,-9.81333 c -0.128,-0.17067 -0.341333,-0.384 -0.682667,-0.384 h -4.352 c -0.682666,0 -1.024,0.68266 -0.682666,1.23733 l 9.728,14.25067 z"
       id="path868"
       inkscape:connector-curvature="0"
       style="fill:#fc2779;fill-opacity:1" />
    <path
       d="m -26.295824,186.18013 c 0,4.90667 3.925333,9.00267 8.746667,9.00267 4.821333,0 8.7466669,-4.096 8.7466669,-9.00267 0,-4.82133 -3.9253339,-8.91733 -8.7466669,-8.91733 -4.821334,0 -8.746667,4.096 -8.746667,8.91733 z m 4.650667,0 c 0,-2.38933 1.792,-4.30933 4.096,-4.30933 2.261333,0 4.096,1.92 4.096,4.30933 0,2.432 -1.834667,4.39467 -4.096,4.39467 -2.304,0 -4.096,-1.96267 -4.096,-4.39467 z"
       id="path870"
       inkscape:connector-curvature="0"
       style="fill:#fc2779;fill-opacity:1" />
    <path
       d="m -5.2718239,186.77747 c 0,4.352 1.92,8.40533 7.2106668,8.40533 3.3706668,0 4.9493335,-1.792 5.7173335,-2.47467 l 0.5120001,1.408 c 0.128,0.34134 0.384,0.64 0.8106666,0.64 H 10.55751 c 0.426667,0 0.810667,-0.384 0.810667,-0.81066 v -15.44534 c 0,-0.46933 -0.384,-0.81066 -0.810667,-0.81066 H 7.3148431 c -0.6826667,0 -0.9386667,0.17066 -0.9386667,0.81066 v 8.87467 c -0.256,1.536 -1.6213334,3.2 -3.4133334,3.2 -1.9626668,0 -3.1146668,-1.408 -3.1146668,-3.66933 v -8.40534 c 0,-0.46933 -0.38400001,-0.81066 -0.81066669,-0.81066 H -4.4611573 c -0.4266666,0 -0.8106666,0.34133 -0.8106666,0.81066 z"
       id="path872"
       inkscape:connector-curvature="0"
       style="fill:#fc2779;fill-opacity:1" />
    <path
       d="m 16.526843,193.94547 c 0,0.42666 0.384,0.81066 0.810666,0.81066 h 3.285334 c 0.597333,0 0.981333,-0.21333 0.981333,-0.81066 v -10.32534 c 0.298667,-0.59733 1.322667,-1.74933 3.029334,-1.74933 0.469333,0 1.109333,0.21333 1.237333,0.256 0.341333,0.17067 0.768,0 0.981333,-0.384 l 1.578667,-2.77333 c 0.512,-1.06667 -1.28,-1.70667 -3.285333,-1.70667 -2.645334,0 -4.224,1.792 -4.821334,2.64533 l -0.597333,-1.664 c -0.128,-0.34133 -0.384,-0.55466 -0.768,-0.55466 h -1.621334 c -0.426666,0 -0.810666,0.34133 -0.810666,0.81066 z"
       id="path874"
       inkscape:connector-curvature="0"
       style="fill:#fc2779;fill-opacity:1" />
    <path
       d="m 41.849509,193.94547 c 0,0.42666 0.341334,0.81066 0.810667,0.81066 H 52.98551 c 5.205333,0 9.301333,-3.456 9.301333,-8.23466 0,-3.92534 -3.285333,-6.22934 -5.546666,-6.95467 2.005333,-0.93867 4.693333,-3.49867 4.693333,-6.784 0,-4.48 -3.925333,-7.89333 -9.002667,-7.89333 h -9.770667 c -0.469333,0 -0.810667,0.384 -0.810667,0.81066 z m 5.504001,-16.512 v -7.46667 h 4.565333 c 2.176,0 3.669334,1.49333 3.669334,3.62667 0,2.13333 -1.493334,3.84 -3.669334,3.84 z m 0,12.288 v -7.59467 h 4.650666 c 2.218667,0 4.352001,1.57867 4.352001,3.712 0,2.21867 -1.706667,3.88267 -3.840001,3.88267 z"
       id="path876"
       inkscape:connector-curvature="0"
       style="fill:#fc2779;fill-opacity:1" />
    <path
       d="m 65.163514,186.2228 c 0,4.90667 3.626667,8.96 8.746667,8.96 2.773334,0 4.949334,-1.024 6.357334,-2.34667 0.426667,-0.34133 0.341333,-0.81066 0.04267,-1.10933 l -1.749334,-2.00533 c -0.298667,-0.34134 -0.682667,-0.256 -1.109333,0 -0.768,0.55466 -2.005334,1.06666 -3.328,1.06666 -2.474667,0 -3.968,-1.96266 -4.096,-3.712 h 10.922667 c 0.384,0 0.768,-0.29866 0.810666,-0.72533 0.04267,-0.29867 0.08533,-0.85333 0.08533,-1.152 0,-4.608 -3.584001,-7.936 -7.978667,-7.936 -5.077334,0 -8.704001,4.13867 -8.704001,8.96 z m 5.248001,-2.13333 c 0.213333,-1.62134 1.621333,-2.90134 3.328,-2.90134 1.621333,0 2.986666,1.32267 3.114666,2.90134 z"
       id="path878"
       inkscape:connector-curvature="0"
       style="fill:#fc2779;fill-opacity:1" />
    <path
       d="m 84.206181,189.33747 c 0,3.62666 2.346667,5.84533 5.76,5.84533 2.645334,0 4.224,-1.28 5.205334,-2.176 l 0.512,1.152 c 0.213333,0.46933 0.426666,0.59733 0.725333,0.59733 h 1.536 c 0.426667,0 0.810667,-0.384 0.810667,-0.81066 v -9.25867 c 0,-4.65067 -1.237333,-7.424 -6.570667,-7.424 -2.730667,0 -5.461333,0.68267 -5.802667,0.81067 -0.384,0.128 -0.725333,0.42666 -0.597333,1.06666 l 0.384,2.21867 c 0.08533,0.55467 0.384,0.93867 0.981333,0.768 0.981334,-0.29867 3.2,-0.64 4.778667,-0.64 1.578667,0 2.261333,0.768 2.218667,2.944 0,0 -1.408,-0.46933 -3.114667,-0.46933 -4.352,0 -6.826667,2.34666 -6.826667,5.376 z m 4.693334,0 c 0,-1.36534 1.109333,-2.304 2.773333,-2.304 1.237333,0 2.389333,0.512 2.389333,0.512 v 2.34666 c -0.256,0.512 -1.578666,1.664 -2.944,1.664 -1.322666,0 -2.218666,-0.93866 -2.218666,-2.21866 z"
       id="path880"
       inkscape:connector-curvature="0"
       style="fill:#fc2779;fill-opacity:1" />
    <path
       d="m 103.39485,186.77747 c 0,4.352 1.92,8.40533 7.21066,8.40533 3.37067,0 4.94934,-1.792 5.71734,-2.47467 l 0.512,1.408 c 0.128,0.34134 0.384,0.64 0.81066,0.64 h 1.57867 c 0.42667,0 0.81067,-0.384 0.81067,-0.81066 v -15.44534 c 0,-0.46933 -0.384,-0.81066 -0.81067,-0.81066 h -3.24267 c -0.68266,0 -0.93866,0.17066 -0.93866,0.81066 v 8.87467 c -0.256,1.536 -1.62134,3.2 -3.41334,3.2 -1.96266,0 -3.11466,-1.408 -3.11466,-3.66933 v -8.40534 c 0,-0.46933 -0.384,-0.81066 -0.81067,-0.81066 h -3.49867 c -0.42666,0 -0.81066,0.34133 -0.81066,0.81066 z"
       id="path882"
       inkscape:connector-curvature="0"
       style="fill:#fc2779;fill-opacity:1" />
    <path
       d="m 126.08951,189.6788 c 0,3.456 1.45067,5.504 4.736,5.504 2.09067,0 4.864,-0.98133 5.07734,-1.10933 0.42666,-0.17067 0.64,-0.59734 0.46933,-1.024 l -0.85333,-2.688 c -0.128,-0.42667 -0.46934,-0.64 -0.93867,-0.46934 -0.46933,0.17067 -1.36533,0.46934 -2.09067,0.46934 -0.68266,0 -1.32266,-0.17067 -1.32266,-1.36534 v -6.82666 h 3.75466 c 0.46934,0 0.81067,-0.384 0.81067,-0.81067 v -2.85867 c 0,-0.46933 -0.34133,-0.81066 -0.81067,-0.81066 h -3.75466 v -4.77867 c 0,-0.42667 -0.34134,-0.81067 -0.768,-0.81067 l -3.49867,0.0427 c -0.42667,0 -0.81067,0.384 -0.81067,0.81067 v 4.736 h -1.45066 c -0.42667,0 -0.768,0.34133 -0.768,0.81066 v 2.85867 c 0,0.42667 0.34133,0.81067 0.768,0.81067 h 1.45066 z"
       id="path884"
       inkscape:connector-curvature="0"
       style="fill:#fc2779;fill-opacity:1" />
    <path
       d="m 144.67951,193.56147 -6.05866,12.84266 c -0.29867,0.59734 0.0853,1.152 0.72533,1.152 h 3.66933 c 0.34134,0 0.59734,-0.256 0.72534,-0.512 l 13.056,-28.24533 c 0.29866,-0.55467 -0.0427,-1.10933 -0.72534,-1.10933 h -3.41333 c -0.512,0 -0.81067,0.0427 -1.024,0.46933 l -4.26667,9.64267 h -0.0427 l -4.30934,-9.64267 c -0.128,-0.256 -0.34133,-0.46933 -0.72533,-0.46933 h -3.84 c -0.64,0 -0.98133,0.55466 -0.72533,1.10933 z"
       id="path886"
       inkscape:connector-curvature="0"
       style="fill:#fc2779;fill-opacity:1" />
    <path
       d="m 157.96018,191.68413 c 0,1.92 1.57866,3.49867 3.49866,3.49867 1.92,0 3.54134,-1.57867 3.54134,-3.49867 0,-1.92 -1.62134,-3.54133 -3.54134,-3.54133 -1.92,0 -3.49866,1.62133 -3.49866,3.54133 z"
       id="path888"
       inkscape:connector-curvature="0"
       style="fill:#fc2779;fill-opacity:1" />
    <path
       d="m 177.63285,179.86547 c 0,8.53333 6.784,15.31733 15.31733,15.31733 8.53334,0 15.36,-6.784 15.36,-15.31733 0,-8.53334 -6.82666,-15.40267 -15.36,-15.40267 -8.53333,0 -15.31733,6.86933 -15.31733,15.40267 z m 5.54666,0 c 0,-5.376 4.39467,-9.856 9.77067,-9.856 5.376,0 9.81334,4.48 9.81334,9.856 0,5.376 -4.43734,9.77066 -9.81334,9.77066 -5.376,0 -9.77067,-4.39466 -9.77067,-9.77066 z"
       id="path890"
       inkscape:connector-curvature="0"
       style="fill:#fc2779;fill-opacity:1" />
    <path
       d="m 211.72818,186.77747 c 0,4.352 1.92,8.40533 7.21066,8.40533 3.37067,0 4.94934,-1.792 5.71734,-2.47467 l 0.512,1.408 c 0.128,0.34134 0.384,0.64 0.81066,0.64 h 1.57867 c 0.42667,0 0.81067,-0.384 0.81067,-0.81066 v -15.44534 c 0,-0.46933 -0.384,-0.81066 -0.81067,-0.81066 h -3.24267 c -0.68266,0 -0.93866,0.17066 -0.93866,0.81066 v 8.87467 c -0.256,1.536 -1.62134,3.2 -3.41334,3.2 -1.96266,0 -3.11466,-1.408 -3.11466,-3.66933 v -8.40534 c 0,-0.46933 -0.384,-0.81066 -0.81067,-0.81066 h -3.49867 c -0.42666,0 -0.81066,0.34133 -0.81066,0.81066 z"
       id="path892"
       inkscape:connector-curvature="0"
       style="fill:#fc2779;fill-opacity:1" />
    <path
       d="m 233.52684,193.94547 c 0,0.42666 0.384,0.81066 0.81067,0.81066 h 3.28533 c 0.59734,0 0.98134,-0.21333 0.98134,-0.81066 v -10.32534 c 0.29866,-0.59733 1.32266,-1.74933 3.02933,-1.74933 0.46933,0 1.10933,0.21333 1.23733,0.256 0.34134,0.17067 0.768,0 0.98134,-0.384 l 1.57866,-2.77333 c 0.512,-1.06667 -1.28,-1.70667 -3.28533,-1.70667 -2.64533,0 -4.224,1.792 -4.82133,2.64533 l -0.59734,-1.664 c -0.128,-0.34133 -0.384,-0.55466 -0.768,-0.55466 h -1.62133 c -0.42667,0 -0.81067,0.34133 -0.81067,0.81066 z"
       id="path894"
       inkscape:connector-curvature="0"
       style="fill:#fc2779;fill-opacity:1" />
    <path
       d="m 258.84951,193.94547 c 0,0.42666 0.34133,0.81066 0.81067,0.81066 h 3.92533 c 0.42667,0 0.81067,-0.384 0.81067,-0.81066 V 183.9188 h 5.33333 c 5.20533,0 9.51467,-4.30933 9.51467,-9.6 0,-5.16267 -4.30934,-9.42933 -9.55734,-9.42933 h -10.02666 c -0.46934,0 -0.81067,0.384 -0.81067,0.81066 z m 5.54667,-15.232 v -8.576 h 4.94933 c 2.38933,0 4.39467,1.792 4.39467,4.13866 0,2.51734 -2.00534,4.43734 -4.39467,4.43734 z"
       id="path896"
       inkscape:connector-curvature="0"
       style="fill:#fc2779;fill-opacity:1" />
    <path
       d="m 280.12285,189.33747 c 0,3.62666 2.34667,5.84533 5.76,5.84533 2.64534,0 4.224,-1.28 5.20534,-2.176 l 0.512,1.152 c 0.21333,0.46933 0.42666,0.59733 0.72533,0.59733 h 1.536 c 0.42667,0 0.81067,-0.384 0.81067,-0.81066 v -9.25867 c 0,-4.65067 -1.23734,-7.424 -6.57067,-7.424 -2.73067,0 -5.46133,0.68267 -5.80267,0.81067 -0.384,0.128 -0.72533,0.42666 -0.59733,1.06666 l 0.384,2.21867 c 0.0853,0.55467 0.384,0.93867 0.98133,0.768 0.98134,-0.29867 3.2,-0.64 4.77867,-0.64 1.57867,0 2.26133,0.768 2.21867,2.944 0,0 -1.408,-0.46933 -3.11467,-0.46933 -4.352,0 -6.82667,2.34666 -6.82667,5.376 z m 4.69334,0 c 0,-1.36534 1.10933,-2.304 2.77333,-2.304 1.23733,0 2.38933,0.512 2.38933,0.512 v 2.34666 c -0.256,0.512 -1.57866,1.664 -2.944,1.664 -1.32266,0 -2.21866,-0.93866 -2.21866,-2.21866 z"
       id="path898"
       inkscape:connector-curvature="0"
       style="fill:#fc2779;fill-opacity:1" />
    <path
       d="m 298.92752,193.60413 c 0.896,0.68267 2.85867,1.57867 5.67467,1.57867 4.30933,0 6.784,-2.38933 6.784,-5.20533 0,-3.328 -2.47467,-4.736 -5.76,-6.016 -1.57867,-0.64 -2.34667,-0.896 -2.34667,-1.664 0,-0.55467 0.42667,-0.98134 1.45067,-0.98134 1.62133,0 3.54133,0.896 3.54133,0.896 0.34133,0.128 0.81067,0.0853 1.024,-0.29866 l 1.06667,-2.176 c 0.21333,-0.42667 0,-0.896 -0.384,-1.152 -0.896,-0.59734 -2.73067,-1.32267 -5.248,-1.32267 -4.352,0 -6.272,2.432 -6.272,5.03467 0,2.60266 1.536,4.352 4.82133,5.632 2.26133,0.896 2.85867,1.36533 2.85867,2.13333 0,0.72533 -0.59734,1.06667 -1.45067,1.06667 -1.96267,0 -3.88267,-1.024 -3.88267,-1.024 -0.384,-0.21334 -0.81066,-0.128 -0.98133,0.29866 l -1.152,2.304 c -0.17067,0.34134 0,0.68267 0.256,0.896 z"
       id="path900"
       inkscape:connector-curvature="0"
       style="fill:#fc2779;fill-opacity:1" />
    <path
       d="m 314.42752,193.60413 c 0.896,0.68267 2.85867,1.57867 5.67467,1.57867 4.30933,0 6.784,-2.38933 6.784,-5.20533 0,-3.328 -2.47467,-4.736 -5.76,-6.016 -1.57867,-0.64 -2.34667,-0.896 -2.34667,-1.664 0,-0.55467 0.42667,-0.98134 1.45067,-0.98134 1.62133,0 3.54133,0.896 3.54133,0.896 0.34133,0.128 0.81067,0.0853 1.024,-0.29866 l 1.06667,-2.176 c 0.21333,-0.42667 0,-0.896 -0.384,-1.152 -0.896,-0.59734 -2.73067,-1.32267 -5.248,-1.32267 -4.352,0 -6.272,2.432 -6.272,5.03467 0,2.60266 1.536,4.352 4.82133,5.632 2.26133,0.896 2.85867,1.36533 2.85867,2.13333 0,0.72533 -0.59734,1.06667 -1.45067,1.06667 -1.96267,0 -3.88267,-1.024 -3.88267,-1.024 -0.384,-0.21334 -0.81066,-0.128 -0.98133,0.29866 l -1.152,2.304 c -0.17067,0.34134 0,0.68267 0.256,0.896 z"
       id="path902"
       inkscape:connector-curvature="0"
       style="fill:#fc2779;fill-opacity:1" />
    <path
       d="m 333.12752,171.6308 c 1.664,0 2.98667,-1.32267 2.98667,-2.944 0,-1.62133 -1.32267,-2.944 -2.98667,-2.944 -1.62133,0 -2.90133,1.32267 -2.90133,2.944 0,1.62133 1.28,2.944 2.90133,2.944 z m -2.51733,22.31467 c 0,0.42666 0.384,0.81066 0.81066,0.81066 h 3.54134 c 0.42666,0 0.81066,-0.384 0.81066,-0.81066 v -15.44534 c 0,-0.46933 -0.384,-0.81066 -0.81066,-0.81066 h -3.54134 c -0.42666,0 -0.81066,0.34133 -0.81066,0.81066 z"
       id="path904"
       inkscape:connector-curvature="0"
       style="fill:#fc2779;fill-opacity:1" />
    <path
       d="m 339.53752,186.18013 c 0,4.90667 3.92533,9.00267 8.74667,9.00267 4.82133,0 8.74666,-4.096 8.74666,-9.00267 0,-4.82133 -3.92533,-8.91733 -8.74666,-8.91733 -4.82134,0 -8.74667,4.096 -8.74667,8.91733 z m 4.65067,0 c 0,-2.38933 1.792,-4.30933 4.096,-4.30933 2.26133,0 4.096,1.92 4.096,4.30933 0,2.432 -1.83467,4.39467 -4.096,4.39467 -2.304,0 -4.096,-1.96267 -4.096,-4.39467 z"
       id="path906"
       inkscape:connector-curvature="0"
       style="fill:#fc2779;fill-opacity:1" />
    <path
       d="m 360.86019,193.94547 c 0,0.42666 0.384,0.81066 0.81066,0.81066 h 3.15734 c 0.81066,0 1.06666,-0.21333 1.06666,-0.81066 v -9.38667 c 0.42667,-1.152 1.792,-2.688 4.01067,-2.688 2.048,0 3.2,1.408 3.2,3.62667 v 8.448 c 0,0.42666 0.34133,0.81066 0.81067,0.81066 h 3.49866 c 0.42667,0 0.81067,-0.384 0.81067,-0.81066 v -8.192 c 0,-4.43734 -2.176,-8.49067 -7.59467,-8.49067 -3.28533,0 -5.376,1.83467 -6.016,2.51733 l -0.59733,-1.57866 c -0.128,-0.29867 -0.34133,-0.512 -0.72533,-0.512 h -1.62134 c -0.42666,0 -0.81066,0.34133 -0.81066,0.81066 z"
       id="path908"
       inkscape:connector-curvature="0"
       style="fill:#fc2779;fill-opacity:1" />
    <path
       d="m 381.96018,191.68413 c 0,1.92 1.57866,3.49867 3.49866,3.49867 1.92,0 3.54134,-1.57867 3.54134,-3.49867 0,-1.92 -1.62134,-3.54133 -3.54134,-3.54133 -1.92,0 -3.49866,1.62133 -3.49866,3.54133 z"
       id="path910"
       inkscape:connector-curvature="0"
       style="fill:#fc2779;fill-opacity:1" />
  </g>
</svg>
